<svg width="19" height="24" viewBox="0 0 19 24" fill="none" xmlns="http://www.w3.org/2000/svg">
<path d="M10.5022 24C7.24217 24 4.31217 22 3.10217 19L0.0721748 11.37C-0.237825 10.58 0.502175 9.79 1.31217 10.05L2.10217 10.31C2.66217 10.5 3.12217 10.92 3.34218 11.47L4.75217 15H5.50217V3.25C5.50217 2.56 6.06217 2 6.75217 2C7.44217 2 8.00217 2.56 8.00217 3.25V12H9.00217V1.25C9.00217 0.56 9.56217 0 10.2522 0C10.9422 0 11.5022 0.56 11.5022 1.25V12H12.5022V2.75C12.5022 2.06 13.0622 1.5 13.7522 1.5C14.4422 1.5 15.0022 2.06 15.0022 2.75V12H16.0022V5.75C16.0022 5.06 16.5622 4.5 17.2522 4.5C17.9422 4.5 18.5022 5.06 18.5022 5.75V16C18.5022 20.42 14.9222 24 10.5022 24Z" fill="white"/>
</svg>
