<svg width="24" height="24" viewBox="0 0 24 24" fill="none" xmlns="http://www.w3.org/2000/svg">
<path d="M20.9998 6.6015V5.71624L14.9515 3L3 8.36739V9.25247L5.53493 10.3906V13.2602L3 14.3989V15.2838L9.04854 18L21 12.6326V11.7477L18.4653 10.6094V7.73978L20.9998 6.6015ZM9.19416 11.6172V11.1741L20.7088 6.00304V6.44576L9.19416 11.6172ZM20.5358 5.79419L9.04854 10.9531L3.46422 8.44534L14.9515 3.28645L20.5358 5.79419ZM3.29083 8.65365L8.90292 11.1741V11.6174L3.29083 9.09673V8.65365ZM18.3197 10.8304L20.5358 11.8257L9.04854 16.9846L6.83242 15.9893L18.3197 10.8304ZM6.36799 15.7807L5.82596 15.5373V10.5215L6.36799 10.765V15.7807ZM5.53493 15.4062L3.46422 14.4766L5.53493 13.5467V15.4062ZM3.29083 14.6851L5.53472 15.6931L6.65882 16.1976L8.90272 17.2056V17.6485L3.29083 15.128V14.6851ZM9.19416 17.6485V17.2056L20.7088 12.0342V12.4774L9.19416 17.6485ZM18.174 10.6094L6.65902 15.7807V10.8957L9.04854 11.9689L9.11491 11.9392L15.0178 9.28788L18.174 7.87031V10.6094Z" fill="#222222" stroke="#222222" stroke-width="0.25"/>
<path d="M9.5287 9.82162L8.3591 7.15801L9.96663 6.45213L10.0923 6.73826L8.80729 7.3025L9.20248 8.20251L10.4042 7.67482L10.5299 7.96095L9.32812 8.48864L9.72561 9.39386L11.0314 8.82048L11.157 9.10661L9.5287 9.82162ZM11.7176 8.86046L10.548 6.19685L12.1451 5.49554L12.2708 5.78168L10.9962 6.34135L11.3914 7.24136L12.5463 6.73423L12.6719 7.02036L11.517 7.52749L12.0401 8.71883L11.7176 8.86046ZM13.8672 7.91658L12.6975 5.25297L13.6288 4.84407C13.8143 4.76259 13.9814 4.72747 14.1301 4.73871C14.2785 4.74909 14.4057 4.79509 14.5119 4.87671C14.6177 4.95747 14.6991 5.06288 14.7562 5.19294C14.8065 5.30739 14.8276 5.41085 14.8196 5.50331C14.8124 5.59539 14.7854 5.67758 14.7386 5.74987C14.6926 5.82177 14.636 5.88488 14.5689 5.9392L14.5803 5.96521C14.6641 5.93462 14.7586 5.92726 14.8638 5.94311C14.969 5.95897 15.0707 6.00327 15.1688 6.07601C15.2669 6.14875 15.3468 6.25536 15.4085 6.39582C15.4672 6.52935 15.4895 6.66276 15.4757 6.79606C15.4618 6.92936 15.4031 7.05597 15.2996 7.17589C15.1961 7.29581 15.0394 7.40184 14.8296 7.49397L13.8672 7.91658ZM14.0641 7.48882L14.7039 7.20784C14.9146 7.11533 15.0463 7.0089 15.099 6.88856C15.1521 6.76697 15.153 6.64765 15.1016 6.5306C15.062 6.44043 15.0025 6.36728 14.923 6.31115C14.8432 6.25416 14.7507 6.22135 14.6455 6.21271C14.54 6.2032 14.4291 6.22395 14.3129 6.27497L13.6574 6.5628L14.0641 7.48882ZM13.5341 6.28187L14.1324 6.01917C14.2295 5.97653 14.3087 5.919 14.3699 5.84658C14.4321 5.77378 14.4709 5.69261 14.4864 5.60307C14.5028 5.51315 14.4904 5.42136 14.4493 5.32772C14.3979 5.21067 14.3135 5.12928 14.1962 5.08357C14.0786 5.03698 13.9313 5.05253 13.7544 5.1302L13.1457 5.39747L13.5341 6.28187Z" fill="#222222"/>
</svg>
