<svg width="24" height="24" viewBox="0 0 24 24" fill="none" xmlns="http://www.w3.org/2000/svg">
<path d="M4 6C4 6 4.48882 11.0563 5.25559 12.4158C5.53355 12.9046 6.21406 12.9046 6.98083 12.981C7.59425 13.0421 8.55272 12.981 8.80192 12.4158C9.44409 10.9646 10 6 10 6" stroke="#222222" stroke-width="0.75" stroke-miterlimit="10"/>
<path d="M13 6C13 6 13.4888 11.0563 14.2556 12.4158C14.5335 12.9046 15.2141 12.9046 15.9808 12.981C16.5942 13.0421 17.5527 12.981 17.8019 12.4158C18.4441 10.9646 19 6 19 6" stroke="#222222" stroke-width="0.75" stroke-miterlimit="10"/>
<path d="M21 6H2V18H21V6Z" stroke="#222222" stroke-width="0.75" stroke-miterlimit="10"/>
<path d="M5.54235 13.5455V15H5.32289V13.5455H5.54235ZM6.05726 14.3523V15H5.8449V13.9091H6.04874V14.0866H6.06223C6.08733 14.0289 6.12663 13.9825 6.18013 13.9474C6.23411 13.9124 6.30205 13.8949 6.38397 13.8949C6.4583 13.8949 6.52341 13.9105 6.57928 13.9418C6.63515 13.9725 6.67847 14.0185 6.70925 14.0795C6.74003 14.1406 6.75542 14.2161 6.75542 14.3061V15H6.54306V14.3317C6.54306 14.2526 6.52246 14.1908 6.48127 14.1463C6.44007 14.1013 6.38349 14.0788 6.31152 14.0788C6.26228 14.0788 6.21848 14.0895 6.18013 14.1108C6.14225 14.1321 6.11219 14.1634 6.08993 14.2045C6.06815 14.2453 6.05726 14.2945 6.05726 14.3523ZM7.54945 13.9091V14.0795H6.95357V13.9091H7.54945ZM7.11337 13.6477H7.32573V14.6797C7.32573 14.7209 7.33188 14.7519 7.34419 14.7727C7.3565 14.7931 7.37237 14.8071 7.39178 14.8146C7.41167 14.8217 7.43321 14.8253 7.45641 14.8253C7.47346 14.8253 7.48837 14.8241 7.50115 14.8217C7.51394 14.8194 7.52388 14.8175 7.53098 14.8161L7.56934 14.9915C7.55703 14.9962 7.53951 15.0009 7.51678 15.0057C7.49405 15.0109 7.46564 15.0137 7.43155 15.0142C7.37568 15.0152 7.3236 15.0052 7.2753 14.9844C7.22701 14.9635 7.18794 14.9313 7.15811 14.8878C7.12828 14.8442 7.11337 14.7895 7.11337 14.7237V13.6477ZM8.24281 15.022C8.13533 15.022 8.04276 14.9991 7.96511 14.9531C7.88793 14.9067 7.82827 14.8416 7.78613 14.7578C7.74447 14.6735 7.72363 14.5748 7.72363 14.4616C7.72363 14.3499 7.74447 14.2514 7.78613 14.1662C7.82827 14.081 7.88699 14.0144 7.96227 13.9666C8.03803 13.9188 8.12657 13.8949 8.22789 13.8949C8.28945 13.8949 8.34911 13.9051 8.40687 13.9254C8.46464 13.9458 8.51648 13.9777 8.56241 14.0213C8.60834 14.0649 8.64456 14.1214 8.67108 14.1911C8.69759 14.2602 8.71085 14.3442 8.71085 14.4432V14.5185H7.84366V14.3594H8.50275C8.50275 14.3035 8.49139 14.254 8.46866 14.2109C8.44593 14.1674 8.41397 14.133 8.37278 14.108C8.33206 14.0829 8.28424 14.0703 8.22931 14.0703C8.16966 14.0703 8.11757 14.085 8.07306 14.1143C8.02903 14.1432 7.99494 14.1811 7.97079 14.228C7.94712 14.2744 7.93528 14.3248 7.93528 14.3793V14.5036C7.93528 14.5765 7.94806 14.6385 7.97363 14.6896C7.99967 14.7408 8.0359 14.7798 8.0823 14.8068C8.1287 14.8333 8.18291 14.8466 8.24494 14.8466C8.28519 14.8466 8.32188 14.8409 8.35502 14.8295C8.38817 14.8177 8.41681 14.8002 8.44096 14.777C8.46511 14.7538 8.48358 14.7251 8.49636 14.6911L8.69735 14.7273C8.68126 14.7865 8.65237 14.8383 8.61071 14.8828C8.56951 14.9268 8.51767 14.9612 8.45517 14.9858C8.39314 15.0099 8.32235 15.022 8.24281 15.022ZM8.94647 15V13.9091H9.15172V14.0824H9.16309C9.18297 14.0237 9.21801 13.9775 9.2682 13.9439C9.31886 13.9098 9.37615 13.8928 9.44007 13.8928C9.45333 13.8928 9.46896 13.8932 9.48695 13.8942C9.50542 13.8951 9.51986 13.8963 9.53027 13.8977V14.1009C9.52175 14.0985 9.5066 14.0959 9.48482 14.093C9.46304 14.0897 9.44126 14.0881 9.41948 14.0881C9.36929 14.0881 9.32454 14.0987 9.28525 14.12C9.24642 14.1409 9.21564 14.17 9.19292 14.2074C9.17019 14.2443 9.15882 14.2865 9.15882 14.3338V15H8.94647ZM9.71404 15V13.9091H9.91788V14.0866H9.93137C9.9541 14.0265 9.99127 13.9796 10.0429 13.946C10.0945 13.9119 10.1563 13.8949 10.2282 13.8949C10.3012 13.8949 10.3622 13.9119 10.4115 13.946C10.4612 13.9801 10.4979 14.027 10.5216 14.0866H10.5329C10.559 14.0284 10.6004 13.982 10.6572 13.9474C10.714 13.9124 10.7818 13.8949 10.8604 13.8949C10.9593 13.8949 11.04 13.9259 11.1025 13.9879C11.1655 14.05 11.197 14.1435 11.197 14.2685V15H10.9846V14.2884C10.9846 14.2145 10.9645 14.161 10.9243 14.1278C10.884 14.0947 10.836 14.0781 10.7801 14.0781C10.711 14.0781 10.6572 14.0994 10.6189 14.142C10.5805 14.1842 10.5613 14.2384 10.5613 14.3047V15H10.3497V14.2749C10.3497 14.2157 10.3312 14.1681 10.2943 14.1321C10.2574 14.0961 10.2093 14.0781 10.1501 14.0781C10.1099 14.0781 10.0727 14.0888 10.0386 14.1101C10.005 14.1309 9.97778 14.16 9.95694 14.1974C9.93658 14.2348 9.9264 14.2782 9.9264 14.3274V15H9.71404ZM11.9518 15.022C11.8443 15.022 11.7517 14.9991 11.6741 14.9531C11.5969 14.9067 11.5373 14.8416 11.4951 14.7578C11.4535 14.6735 11.4326 14.5748 11.4326 14.4616C11.4326 14.3499 11.4535 14.2514 11.4951 14.1662C11.5373 14.081 11.596 14.0144 11.6713 13.9666C11.747 13.9188 11.8356 13.8949 11.9369 13.8949C11.9984 13.8949 12.0581 13.9051 12.1159 13.9254C12.1736 13.9458 12.2255 13.9777 12.2714 14.0213C12.3173 14.0649 12.3535 14.1214 12.3801 14.1911C12.4066 14.2602 12.4198 14.3442 12.4198 14.4432V14.5185H11.5526V14.3594H12.2117C12.2117 14.3035 12.2004 14.254 12.1776 14.2109C12.1549 14.1674 12.123 14.133 12.0818 14.108C12.041 14.0829 11.9932 14.0703 11.9383 14.0703C11.8786 14.0703 11.8266 14.085 11.782 14.1143C11.738 14.1432 11.7039 14.1811 11.6798 14.228C11.6561 14.2744 11.6443 14.3248 11.6443 14.3793V14.5036C11.6443 14.5765 11.657 14.6385 11.6826 14.6896C11.7087 14.7408 11.7449 14.7798 11.7913 14.8068C11.8377 14.8333 11.8919 14.8466 11.9539 14.8466C11.9942 14.8466 12.0309 14.8409 12.064 14.8295C12.0972 14.8177 12.1258 14.8002 12.1499 14.777C12.1741 14.7538 12.1926 14.7251 12.2053 14.6911L12.4063 14.7273C12.3902 14.7865 12.3614 14.8383 12.3197 14.8828C12.2785 14.9268 12.2267 14.9612 12.1642 14.9858C12.1021 15.0099 12.0313 15.022 11.9518 15.022ZM13.0638 15.0213C12.9758 15.0213 12.8972 14.9988 12.828 14.9538C12.7594 14.9084 12.7054 14.8437 12.6661 14.7599C12.6273 14.6757 12.6079 14.5746 12.6079 14.4567C12.6079 14.3388 12.6275 14.2379 12.6668 14.1541C12.7066 14.0703 12.761 14.0062 12.8302 13.9616C12.8993 13.9171 12.9777 13.8949 13.0653 13.8949C13.133 13.8949 13.1874 13.9062 13.2286 13.929C13.2703 13.9512 13.3025 13.9773 13.3252 14.0071C13.3484 14.0369 13.3664 14.0632 13.3792 14.0859H13.392V13.5455H13.6043V15H13.3969V14.8303H13.3792C13.3664 14.8535 13.3479 14.88 13.3238 14.9098C13.3001 14.9396 13.2674 14.9657 13.2258 14.9879C13.1841 15.0102 13.1301 15.0213 13.0638 15.0213ZM13.1107 14.8402C13.1718 14.8402 13.2234 14.8241 13.2655 14.7919C13.3081 14.7592 13.3403 14.714 13.3621 14.6562C13.3844 14.5985 13.3955 14.5312 13.3955 14.4545C13.3955 14.3788 13.3846 14.3125 13.3628 14.2557C13.3411 14.1989 13.3091 14.1546 13.267 14.1229C13.2248 14.0911 13.1727 14.0753 13.1107 14.0753C13.0468 14.0753 12.9935 14.0919 12.9509 14.125C12.9083 14.1581 12.8761 14.2034 12.8543 14.2607C12.833 14.3179 12.8224 14.3826 12.8224 14.4545C12.8224 14.5275 12.8332 14.593 12.855 14.6513C12.8768 14.7095 12.909 14.7557 12.9516 14.7898C12.9947 14.8234 13.0477 14.8402 13.1107 14.8402ZM13.9074 15V13.9091H14.1198V15H13.9074ZM14.0146 13.7408C13.9777 13.7408 13.946 13.7285 13.9195 13.7038C13.8934 13.6787 13.8804 13.6489 13.8804 13.6143C13.8804 13.5793 13.8934 13.5495 13.9195 13.5249C13.946 13.4998 13.9777 13.4872 14.0146 13.4872C14.0516 13.4872 14.0831 13.4998 14.1091 13.5249C14.1356 13.5495 14.1489 13.5793 14.1489 13.6143C14.1489 13.6489 14.1356 13.6787 14.1091 13.7038C14.0831 13.7285 14.0516 13.7408 14.0146 13.7408ZM14.7229 15.0241C14.6538 15.0241 14.5913 15.0114 14.5354 14.9858C14.4796 14.9598 14.4353 14.9221 14.4026 14.8729C14.3704 14.8236 14.3543 14.7633 14.3543 14.6918C14.3543 14.6302 14.3662 14.5795 14.3898 14.5398C14.4135 14.5 14.4455 14.4685 14.4857 14.4453C14.526 14.4221 14.5709 14.4046 14.6206 14.3928C14.6704 14.3809 14.721 14.3719 14.7726 14.3658C14.838 14.3582 14.891 14.352 14.9317 14.3473C14.9724 14.3421 15.002 14.3338 15.0205 14.3224C15.039 14.3111 15.0482 14.2926 15.0482 14.267V14.2621C15.0482 14.2 15.0307 14.152 14.9956 14.1179C14.9611 14.0838 14.9095 14.0668 14.8408 14.0668C14.7693 14.0668 14.713 14.0826 14.6718 14.1143C14.6311 14.1456 14.6029 14.1804 14.5873 14.2188L14.3877 14.1733C14.4114 14.107 14.4459 14.0535 14.4914 14.0128C14.5373 13.9716 14.5901 13.9418 14.6498 13.9233C14.7094 13.9044 14.7722 13.8949 14.838 13.8949C14.8815 13.8949 14.9277 13.9001 14.9765 13.9105C15.0257 13.9205 15.0716 13.9389 15.1143 13.9659C15.1573 13.9929 15.1926 14.0315 15.2201 14.0817C15.2475 14.1314 15.2613 14.196 15.2613 14.2756V15H15.0539V14.8509H15.0454C15.0316 14.8783 15.011 14.9053 14.9836 14.9318C14.9561 14.9583 14.9208 14.9804 14.8778 14.9979C14.8347 15.0154 14.7831 15.0241 14.7229 15.0241ZM14.7691 14.8537C14.8278 14.8537 14.878 14.8421 14.9197 14.8189C14.9618 14.7957 14.9938 14.7654 15.0155 14.728C15.0378 14.6901 15.0489 14.6496 15.0489 14.6065V14.4659C15.0413 14.4735 15.0267 14.4806 15.0049 14.4872C14.9836 14.4934 14.9592 14.4988 14.9317 14.5036C14.9043 14.5078 14.8775 14.5118 14.8515 14.5156C14.8254 14.5189 14.8037 14.5218 14.7861 14.5241C14.7449 14.5294 14.7073 14.5381 14.6732 14.5504C14.6396 14.5627 14.6126 14.5805 14.5922 14.6037C14.5724 14.6264 14.5624 14.6567 14.5624 14.6946C14.5624 14.7472 14.5818 14.7869 14.6206 14.8139C14.6595 14.8404 14.709 14.8537 14.7691 14.8537ZM16.0534 13.9091V14.0795H15.4575V13.9091H16.0534ZM15.6173 13.6477H15.8296V14.6797C15.8296 14.7209 15.8358 14.7519 15.8481 14.7727C15.8604 14.7931 15.8763 14.8071 15.8957 14.8146C15.9156 14.8217 15.9371 14.8253 15.9603 14.8253C15.9774 14.8253 15.9923 14.8241 16.0051 14.8217C16.0178 14.8194 16.0278 14.8175 16.0349 14.8161L16.0732 14.9915C16.0609 14.9962 16.0434 15.0009 16.0207 15.0057C15.998 15.0109 15.9695 15.0137 15.9355 15.0142C15.8796 15.0152 15.8275 15.0052 15.7792 14.9844C15.7309 14.9635 15.6919 14.9313 15.662 14.8878C15.6322 14.8442 15.6173 14.7895 15.6173 14.7237V13.6477ZM16.7467 15.022C16.6392 15.022 16.5467 14.9991 16.469 14.9531C16.3918 14.9067 16.3322 14.8416 16.29 14.7578C16.2484 14.6735 16.2275 14.5748 16.2275 14.4616C16.2275 14.3499 16.2484 14.2514 16.29 14.1662C16.3322 14.081 16.3909 14.0144 16.4662 13.9666C16.5419 13.9188 16.6305 13.8949 16.7318 13.8949C16.7934 13.8949 16.853 13.9051 16.9108 13.9254C16.9685 13.9458 17.0204 13.9777 17.0663 14.0213C17.1122 14.0649 17.1485 14.1214 17.175 14.1911C17.2015 14.2602 17.2148 14.3442 17.2148 14.4432V14.5185H16.3476V14.3594H17.0067C17.0067 14.3035 16.9953 14.254 16.9726 14.2109C16.9498 14.1674 16.9179 14.133 16.8767 14.108C16.836 14.0829 16.7881 14.0703 16.7332 14.0703C16.6736 14.0703 16.6215 14.085 16.577 14.1143C16.5329 14.1432 16.4988 14.1811 16.4747 14.228C16.451 14.2744 16.4392 14.3248 16.4392 14.3793V14.5036C16.4392 14.5765 16.452 14.6385 16.4775 14.6896C16.5036 14.7408 16.5398 14.7798 16.5862 14.8068C16.6326 14.8333 16.6868 14.8466 16.7488 14.8466C16.7891 14.8466 16.8258 14.8409 16.8589 14.8295C16.8921 14.8177 16.9207 14.8002 16.9449 14.777C16.969 14.7538 16.9875 14.7251 17.0003 14.6911L17.2013 14.7273C17.1852 14.7865 17.1563 14.8383 17.1146 14.8828C17.0734 14.9268 17.0216 14.9612 16.9591 14.9858C16.897 15.0099 16.8263 15.022 16.7467 15.022ZM6.38654 17H5.91566V15.5455H6.40146C6.54397 15.5455 6.66637 15.5746 6.76864 15.6328C6.87092 15.6906 6.94928 15.7737 7.00373 15.8821C7.05865 15.9901 7.08612 16.1196 7.08612 16.2706C7.08612 16.4221 7.05842 16.5523 7.00302 16.6612C6.94809 16.7701 6.86855 16.8539 6.76438 16.9126C6.66022 16.9709 6.53427 17 6.38654 17ZM6.13512 16.8082H6.37447C6.48526 16.8082 6.57736 16.7874 6.65075 16.7457C6.72414 16.7036 6.77906 16.6428 6.81552 16.5632C6.85198 16.4832 6.87021 16.3857 6.87021 16.2706C6.87021 16.1565 6.85198 16.0597 6.81552 15.9801C6.77953 15.9006 6.72579 15.8402 6.6543 15.799C6.5828 15.7578 6.49402 15.7372 6.38796 15.7372H6.13512V16.8082ZM7.34197 17V15.9091H7.55433V17H7.34197ZM7.44922 15.7408C7.41229 15.7408 7.38056 15.7285 7.35405 15.7038C7.32801 15.6787 7.31499 15.6489 7.31499 15.6143C7.31499 15.5793 7.32801 15.5495 7.35405 15.5249C7.38056 15.4998 7.41229 15.4872 7.44922 15.4872C7.48615 15.4872 7.51764 15.4998 7.54368 15.5249C7.57019 15.5495 7.58345 15.5793 7.58345 15.6143C7.58345 15.6489 7.57019 15.6787 7.54368 15.7038C7.51764 15.7285 7.48615 15.7408 7.44922 15.7408ZM8.15749 17.0241C8.08836 17.0241 8.02586 17.0114 7.96999 16.9858C7.91412 16.9598 7.86985 16.9221 7.83718 16.8729C7.80498 16.8236 7.78888 16.7633 7.78888 16.6918C7.78888 16.6302 7.80072 16.5795 7.8244 16.5398C7.84807 16.5 7.88003 16.4685 7.92028 16.4453C7.96052 16.4221 8.0055 16.4046 8.05522 16.3928C8.10494 16.3809 8.1556 16.3719 8.20721 16.3658C8.27255 16.3582 8.32558 16.352 8.3663 16.3473C8.40702 16.3421 8.43661 16.3338 8.45508 16.3224C8.47354 16.3111 8.48278 16.2926 8.48278 16.267V16.2621C8.48278 16.2 8.46526 16.152 8.43022 16.1179C8.39566 16.0838 8.34405 16.0668 8.27539 16.0668C8.20389 16.0668 8.14755 16.0826 8.10636 16.1143C8.06564 16.1456 8.03746 16.1804 8.02184 16.2188L7.82227 16.1733C7.84594 16.107 7.8805 16.0535 7.92596 16.0128C7.97189 15.9716 8.02468 15.9418 8.08434 15.9233C8.144 15.9044 8.20674 15.8949 8.27255 15.8949C8.31611 15.8949 8.36228 15.9001 8.41104 15.9105C8.46029 15.9205 8.50621 15.9389 8.54883 15.9659C8.59192 15.9929 8.62719 16.0315 8.65465 16.0817C8.68211 16.1314 8.69585 16.196 8.69585 16.2756V17H8.48846V16.8509H8.47994C8.46621 16.8783 8.44561 16.9053 8.41815 16.9318C8.39068 16.9583 8.35541 16.9804 8.31232 16.9979C8.26924 17.0154 8.21763 17.0241 8.15749 17.0241ZM8.20366 16.8537C8.26237 16.8537 8.31256 16.8421 8.35423 16.8189C8.39637 16.7957 8.42833 16.7654 8.45011 16.728C8.47236 16.6901 8.48349 16.6496 8.48349 16.6065V16.4659C8.47591 16.4735 8.46123 16.4806 8.43945 16.4872C8.41815 16.4934 8.39376 16.4988 8.3663 16.5036C8.33884 16.5078 8.31209 16.5118 8.28604 16.5156C8.26 16.5189 8.23822 16.5218 8.2207 16.5241C8.17951 16.5294 8.14187 16.5381 8.10778 16.5504C8.07416 16.5627 8.04717 16.5805 8.02681 16.6037C8.00692 16.6264 7.99698 16.6567 7.99698 16.6946C7.99698 16.7472 8.01639 16.7869 8.05522 16.8139C8.09405 16.8404 8.14353 16.8537 8.20366 16.8537ZM8.97869 17.4091V15.9091H9.18608V16.0859H9.20384C9.21615 16.0632 9.2339 16.0369 9.2571 16.0071C9.2803 15.9773 9.3125 15.9512 9.35369 15.929C9.39489 15.9062 9.44934 15.8949 9.51705 15.8949C9.60511 15.8949 9.68371 15.9171 9.75284 15.9616C9.82197 16.0062 9.87618 16.0703 9.91548 16.1541C9.95526 16.2379 9.97514 16.3388 9.97514 16.4567C9.97514 16.5746 9.95549 16.6757 9.91619 16.7599C9.87689 16.8437 9.82292 16.9084 9.75426 16.9538C9.68561 16.9988 9.60724 17.0213 9.51918 17.0213C9.45289 17.0213 9.39867 17.0102 9.35653 16.9879C9.31487 16.9657 9.2822 16.9396 9.25852 16.9098C9.23485 16.88 9.21662 16.8535 9.20384 16.8303H9.19105V17.4091H8.97869ZM9.18679 16.4545C9.18679 16.5312 9.19792 16.5985 9.22017 16.6562C9.24242 16.714 9.27462 16.7592 9.31676 16.7919C9.3589 16.8241 9.41051 16.8402 9.47159 16.8402C9.53504 16.8402 9.58807 16.8234 9.63068 16.7898C9.6733 16.7557 9.70549 16.7095 9.72727 16.6513C9.74953 16.593 9.76065 16.5275 9.76065 16.4545C9.76065 16.3826 9.74976 16.3179 9.72798 16.2607C9.70668 16.2034 9.67448 16.1581 9.63139 16.125C9.58878 16.0919 9.53551 16.0753 9.47159 16.0753C9.41004 16.0753 9.35795 16.0911 9.31534 16.1229C9.2732 16.1546 9.24124 16.1989 9.21946 16.2557C9.19768 16.3125 9.18679 16.3788 9.18679 16.4545ZM10.4254 16.3523V17H10.2131V15.5455H10.4226V16.0866H10.4361C10.4616 16.0279 10.5007 15.9813 10.5533 15.9467C10.6058 15.9122 10.6745 15.8949 10.7592 15.8949C10.834 15.8949 10.8994 15.9103 10.9553 15.9411C11.0116 15.9718 11.0552 16.0178 11.0859 16.0788C11.1172 16.1394 11.1328 16.2152 11.1328 16.3061V17H10.9205V16.3317C10.9205 16.2517 10.8999 16.1896 10.8587 16.1456C10.8175 16.1011 10.7602 16.0788 10.6868 16.0788C10.6366 16.0788 10.5916 16.0895 10.5518 16.1108C10.5125 16.1321 10.4815 16.1634 10.4588 16.2045C10.4366 16.2453 10.4254 16.2945 10.4254 16.3523ZM11.4162 17V15.9091H11.6214V16.0824H11.6328C11.6527 16.0237 11.6877 15.9775 11.7379 15.9439C11.7886 15.9098 11.8459 15.8928 11.9098 15.8928C11.9231 15.8928 11.9387 15.8932 11.9567 15.8942C11.9751 15.8951 11.9896 15.8963 12 15.8977V16.1009C11.9915 16.0985 11.9763 16.0959 11.9545 16.093C11.9328 16.0897 11.911 16.0881 11.8892 16.0881C11.839 16.0881 11.7943 16.0987 11.755 16.12C11.7161 16.1409 11.6854 16.17 11.6626 16.2074C11.6399 16.2443 11.6286 16.2865 11.6286 16.3338V17H11.4162ZM12.4915 17.0241C12.4223 17.0241 12.3598 17.0114 12.304 16.9858C12.2481 16.9598 12.2038 16.9221 12.1712 16.8729C12.139 16.8236 12.1229 16.7633 12.1229 16.6918C12.1229 16.6302 12.1347 16.5795 12.1584 16.5398C12.1821 16.5 12.214 16.4685 12.2543 16.4453C12.2945 16.4221 12.3395 16.4046 12.3892 16.3928C12.4389 16.3809 12.4896 16.3719 12.5412 16.3658C12.6065 16.3582 12.6596 16.352 12.7003 16.3473C12.741 16.3421 12.7706 16.3338 12.7891 16.3224C12.8075 16.3111 12.8168 16.2926 12.8168 16.267V16.2621C12.8168 16.2 12.7992 16.152 12.7642 16.1179C12.7296 16.0838 12.678 16.0668 12.6094 16.0668C12.5379 16.0668 12.4815 16.0826 12.4403 16.1143C12.3996 16.1456 12.3714 16.1804 12.3558 16.2188L12.1562 16.1733C12.1799 16.107 12.2145 16.0535 12.2599 16.0128C12.3059 15.9716 12.3587 15.9418 12.4183 15.9233C12.478 15.9044 12.5407 15.8949 12.6065 15.8949C12.6501 15.8949 12.6963 15.9001 12.745 15.9105C12.7943 15.9205 12.8402 15.9389 12.8828 15.9659C12.9259 15.9929 12.9612 16.0315 12.9886 16.0817C13.0161 16.1314 13.0298 16.196 13.0298 16.2756V17H12.8224V16.8509H12.8139C12.8002 16.8783 12.7796 16.9053 12.7521 16.9318C12.7247 16.9583 12.6894 16.9804 12.6463 16.9979C12.6032 17.0154 12.5516 17.0241 12.4915 17.0241ZM12.5376 16.8537C12.5964 16.8537 12.6465 16.8421 12.6882 16.8189C12.7304 16.7957 12.7623 16.7654 12.7841 16.728C12.8063 16.6901 12.8175 16.6496 12.8175 16.6065V16.4659C12.8099 16.4735 12.7952 16.4806 12.7734 16.4872C12.7521 16.4934 12.7277 16.4988 12.7003 16.5036C12.6728 16.5078 12.6461 16.5118 12.62 16.5156C12.594 16.5189 12.5722 16.5218 12.5547 16.5241C12.5135 16.5294 12.4759 16.5381 12.4418 16.5504C12.4081 16.5627 12.3812 16.5805 12.3608 16.6037C12.3409 16.6264 12.331 16.6567 12.331 16.6946C12.331 16.7472 12.3504 16.7869 12.3892 16.8139C12.428 16.8404 12.4775 16.8537 12.5376 16.8537ZM13.7701 17.4318C13.6834 17.4318 13.6088 17.4205 13.5463 17.3977C13.4843 17.375 13.4337 17.3449 13.3944 17.3075C13.3551 17.2701 13.3257 17.2292 13.3063 17.1847L13.4888 17.1094C13.5016 17.1302 13.5186 17.1522 13.54 17.1754C13.5617 17.1991 13.5911 17.2192 13.628 17.2358C13.6654 17.2524 13.7135 17.2607 13.7722 17.2607C13.8527 17.2607 13.9192 17.241 13.9718 17.2017C14.0243 17.1629 14.0506 17.1009 14.0506 17.0156V16.8011H14.0371C14.0243 16.8243 14.0059 16.8501 13.9817 16.8786C13.958 16.907 13.9254 16.9316 13.8837 16.9524C13.842 16.9732 13.7878 16.9837 13.7211 16.9837C13.6349 16.9837 13.5572 16.9635 13.4881 16.9233C13.4194 16.8826 13.365 16.8227 13.3248 16.7436C13.285 16.6641 13.2651 16.5663 13.2651 16.4503C13.2651 16.3343 13.2847 16.2348 13.324 16.152C13.3638 16.0691 13.4183 16.0057 13.4874 15.9616C13.5565 15.9171 13.6349 15.8949 13.7225 15.8949C13.7902 15.8949 13.8449 15.9062 13.8865 15.929C13.9282 15.9512 13.9606 15.9773 13.9838 16.0071C14.0075 16.0369 14.0257 16.0632 14.0385 16.0859H14.0542V15.9091H14.2623V17.0241C14.2623 17.1179 14.2405 17.1948 14.1969 17.255C14.1533 17.3151 14.0944 17.3596 14.0201 17.3885C13.9462 17.4174 13.8629 17.4318 13.7701 17.4318ZM13.7679 16.8075C13.829 16.8075 13.8806 16.7933 13.9228 16.7649C13.9654 16.736 13.9976 16.6948 14.0194 16.6413C14.0416 16.5874 14.0527 16.5227 14.0527 16.4474C14.0527 16.3741 14.0418 16.3094 14.0201 16.2536C13.9983 16.1977 13.9663 16.1541 13.9242 16.1229C13.882 16.0911 13.83 16.0753 13.7679 16.0753C13.704 16.0753 13.6507 16.0919 13.6081 16.125C13.5655 16.1577 13.5333 16.2022 13.5115 16.2585C13.4902 16.3149 13.4796 16.3778 13.4796 16.4474C13.4796 16.5189 13.4905 16.5817 13.5123 16.6357C13.534 16.6896 13.5662 16.7318 13.6088 16.7621C13.6519 16.7924 13.705 16.8075 13.7679 16.8075ZM14.5471 17V15.9091H14.7509V16.0866H14.7644C14.7871 16.0265 14.8243 15.9796 14.8759 15.946C14.9275 15.9119 14.9893 15.8949 15.0613 15.8949C15.1342 15.8949 15.1953 15.9119 15.2445 15.946C15.2942 15.9801 15.3309 16.027 15.3546 16.0866H15.3659C15.392 16.0284 15.4334 15.982 15.4902 15.9474C15.5471 15.9124 15.6148 15.8949 15.6934 15.8949C15.7923 15.8949 15.873 15.9259 15.9355 15.9879C15.9985 16.05 16.03 16.1435 16.03 16.2685V17H15.8176V16.2884C15.8176 16.2145 15.7975 16.161 15.7573 16.1278C15.717 16.0947 15.669 16.0781 15.6131 16.0781C15.544 16.0781 15.4902 16.0994 15.4519 16.142C15.4135 16.1842 15.3944 16.2384 15.3944 16.3047V17H15.1827V16.2749C15.1827 16.2157 15.1642 16.1681 15.1273 16.1321C15.0904 16.0961 15.0423 16.0781 14.9831 16.0781C14.9429 16.0781 14.9057 16.0888 14.8716 16.1101C14.838 16.1309 14.8108 16.16 14.79 16.1974C14.7696 16.2348 14.7594 16.2782 14.7594 16.3274V17H14.5471ZM17.1321 16.1754L16.9396 16.2095C16.9316 16.1849 16.9188 16.1615 16.9013 16.1392C16.8842 16.117 16.861 16.0987 16.8317 16.0845C16.8023 16.0703 16.7656 16.0632 16.7216 16.0632C16.6615 16.0632 16.6113 16.0767 16.571 16.1037C16.5308 16.1302 16.5107 16.1645 16.5107 16.2067C16.5107 16.2431 16.5241 16.2725 16.5511 16.2947C16.5781 16.317 16.6217 16.3352 16.6818 16.3494L16.8551 16.3892C16.9555 16.4124 17.0303 16.4482 17.0795 16.4964C17.1288 16.5447 17.1534 16.6075 17.1534 16.6847C17.1534 16.75 17.1345 16.8082 17.0966 16.8594C17.0592 16.91 17.0069 16.9498 16.9396 16.9787C16.8729 17.0076 16.7955 17.022 16.7074 17.022C16.5852 17.022 16.4856 16.996 16.4084 16.9439C16.3312 16.8913 16.2839 16.8168 16.2663 16.7202L16.4716 16.6889C16.4844 16.7424 16.5107 16.7829 16.5504 16.8104C16.5902 16.8374 16.642 16.8509 16.706 16.8509C16.7756 16.8509 16.8312 16.8364 16.8729 16.8075C16.9145 16.7782 16.9354 16.7424 16.9354 16.7003C16.9354 16.6662 16.9226 16.6375 16.897 16.6143C16.8719 16.5911 16.8333 16.5736 16.7812 16.5618L16.5966 16.5213C16.4948 16.4981 16.4195 16.4612 16.3707 16.4105C16.3224 16.3598 16.2983 16.2957 16.2983 16.218C16.2983 16.1536 16.3163 16.0973 16.3523 16.049C16.3883 16.0007 16.438 15.9631 16.5014 15.9361C16.5649 15.9086 16.6375 15.8949 16.7195 15.8949C16.8374 15.8949 16.9302 15.9205 16.9979 15.9716C17.0656 16.0223 17.1103 16.0902 17.1321 16.1754Z" fill="#222222"/>
</svg>
