<svg width="24" height="24" viewBox="0 0 24 24" fill="none" xmlns="http://www.w3.org/2000/svg">
<path d="M4.98 13.18C4.98 11.51 3.65 10.04 1.91 9.83999C1.59 9.79999 1.51 9.70999 1.51 9.40999C1.53 8.69999 1.55 7.98999 1.51 7.28999C1.48 6.77999 1.73 6.76999 2.11 6.76999C6.88 6.76999 11.66 6.76999 16.43 6.76999C18.3 6.76999 20.16 6.76999 22.03 6.76999C22.38 6.76999 22.53 6.84999 22.51 7.22999C22.48 7.95999 22.49 8.67999 22.51 9.40999C22.51 9.70999 22.43 9.79999 22.11 9.83999C20.36 10.04 19.03 11.51 19.04 13.18C19.09 14.52 19.13 15.87 19.02 17.21C18.01 17.21 17.01 17.21 16 17.24C15.64 17.25 15.52 17.14 15.52 16.77C15.54 15.67 15.53 14.57 15.52 13.47C15.52 11.36 14 9.80999 11.98 9.81999C10 9.81999 8.5 11.4 8.49 13.47C8.49 14.57 8.48 15.67 8.49 16.77C8.49 17.14 8.38 17.25 8.01 17.24C7 17.21 6 17.22 4.99 17.21C4.88 15.87 4.92 14.53 4.97 13.18H4.98Z" fill="#222222"/>
</svg>
