<svg width="24" height="24" viewBox="0 0 24 24" fill="none" xmlns="http://www.w3.org/2000/svg">
<path d="M20.9998 7.6015V6.71624L14.9515 4L3 9.36739V10.2525L5.53493 11.3906V14.2602L3 15.3989V16.2838L9.04854 19L21 13.6326V12.7477L18.4653 11.6094V8.73978L20.9998 7.6015ZM9.19416 12.6172V12.1741L20.7088 7.00304V7.44576L9.19416 12.6172ZM20.5358 6.79419L9.04854 11.9531L3.46422 9.44534L14.9515 4.28645L20.5358 6.79419ZM3.29083 9.65365L8.90292 12.1741V12.6174L3.29083 10.0967V9.65365ZM18.3197 11.8304L20.5358 12.8257L9.04854 17.9846L6.83242 16.9893L18.3197 11.8304ZM6.36799 16.7807L5.82596 16.5373V11.5215L6.36799 11.765V16.7807ZM5.53493 16.4062L3.46422 15.4766L5.53493 14.5467V16.4062ZM3.29083 15.6851L5.53472 16.6931L6.65882 17.1976L8.90272 18.2056V18.6485L3.29083 16.128V15.6851ZM9.19416 18.6485V18.2056L20.7088 13.0342V13.4774L9.19416 18.6485ZM18.174 11.6094L6.65902 16.7807V11.8957L9.04854 12.9689L9.11491 12.9392L15.0178 10.2879L18.174 8.87031V11.6094Z" fill="#222222" stroke="#222222" stroke-width="0.25"/>
<path d="M10.1082 8.18428C10.0347 8.05934 9.92646 7.98482 9.7835 7.96072C9.64053 7.93662 9.48841 7.95998 9.32714 8.0308C9.20922 8.08258 9.11441 8.14696 9.04273 8.22394C8.9719 8.30055 8.92644 8.38308 8.90633 8.47155C8.8871 8.55963 8.89613 8.64616 8.93344 8.73113C8.96466 8.80223 9.00841 8.85594 9.06469 8.89224C9.12146 8.9273 9.18414 8.94994 9.25275 8.96015C9.32097 8.96949 9.38933 8.97206 9.4578 8.96784C9.5259 8.96276 9.58752 8.95588 9.64265 8.94718L9.94516 8.90123C10.0225 8.88898 10.1107 8.88024 10.2098 8.875C10.3097 8.86939 10.4109 8.8772 10.5133 8.89843C10.6162 8.91841 10.712 8.96008 10.8009 9.02346C10.8897 9.08683 10.9616 9.18095 11.0164 9.30581C11.0796 9.44974 11.099 9.59636 11.0746 9.74567C11.051 9.8946 10.9823 10.0349 10.8685 10.1666C10.7555 10.2979 10.5967 10.4085 10.392 10.4984C10.2013 10.5821 10.0226 10.6239 9.85597 10.6236C9.69021 10.623 9.54327 10.5851 9.41515 10.51C9.28789 10.4345 9.18708 10.3263 9.11271 10.1852L9.44566 10.039C9.4985 10.1357 9.56886 10.2041 9.65676 10.2441C9.74514 10.2829 9.8419 10.2983 9.94703 10.2904C10.0526 10.2813 10.1583 10.2535 10.2641 10.207C10.3872 10.153 10.489 10.0845 10.5695 10.0016C10.6496 9.91781 10.7024 9.82737 10.7281 9.73028C10.7533 9.63232 10.7446 9.53478 10.702 9.43767C10.6631 9.34923 10.6068 9.28811 10.533 9.25432C10.4592 9.22053 10.3744 9.204 10.2785 9.20473C10.1827 9.20545 10.0822 9.21337 9.97715 9.22847L9.60829 9.27875C9.37392 9.3103 9.17168 9.29723 9.00155 9.23955C8.83143 9.18187 8.70697 9.06329 8.62815 8.8838C8.56267 8.73467 8.54588 8.58691 8.57778 8.44051C8.61017 8.29287 8.68135 8.1582 8.79131 8.03648C8.90176 7.91351 9.04196 7.81472 9.2119 7.7401C9.38358 7.66471 9.5497 7.62848 9.71026 7.63141C9.87044 7.63348 10.0128 7.67026 10.1373 7.74178C10.2626 7.81291 10.357 7.91473 10.4203 8.04722L10.1082 8.18428ZM11.8642 9.79607L10.6946 7.13246L12.2918 6.43115L12.4174 6.71728L11.1428 7.27696L11.538 8.17697L12.6929 7.66983L12.8186 7.95597L11.6637 8.4631L12.1868 9.65444L11.8642 9.79607ZM14.0138 8.85219L12.8442 6.18858L13.7754 5.77968C13.961 5.6982 14.1281 5.66308 14.2768 5.67432C14.4251 5.6847 14.5523 5.7307 14.6585 5.81232C14.7643 5.89308 14.8458 5.99849 14.9029 6.12855C14.9531 6.243 14.9742 6.34646 14.9662 6.43892C14.9591 6.531 14.9321 6.61319 14.8852 6.68547C14.8392 6.75738 14.7827 6.82049 14.7155 6.87481L14.7269 6.90082C14.8107 6.87023 14.9052 6.86287 15.0104 6.87872C15.1156 6.89458 15.2173 6.93887 15.3154 7.01162C15.4136 7.08436 15.4935 7.19097 15.5552 7.33143C15.6138 7.46496 15.6362 7.59837 15.6223 7.73167C15.6084 7.86497 15.5498 7.99158 15.4462 8.1115C15.3427 8.23142 15.1861 8.33745 14.9762 8.42958L14.0138 8.85219ZM14.2107 8.42443L14.8506 8.14345C15.0613 8.05093 15.193 7.94451 15.2456 7.82417C15.2988 7.70258 15.2996 7.58326 15.2482 7.46621C15.2086 7.37603 15.1491 7.30289 15.0696 7.24676C14.9898 7.18977 14.8973 7.15696 14.7922 7.14832C14.6866 7.13881 14.5758 7.15956 14.4596 7.21058L13.8041 7.49841L14.2107 8.42443ZM13.6807 7.21748L14.279 6.95478C14.3761 6.91214 14.4553 6.85461 14.5166 6.78219C14.5787 6.70939 14.6176 6.62822 14.6331 6.53868C14.6494 6.44875 14.637 6.35697 14.5959 6.26333C14.5445 6.14628 14.4602 6.06489 14.3429 6.01918C14.2252 5.97259 14.0779 5.98814 13.9011 6.06581L13.2924 6.33308L13.6807 7.21748Z" fill="#222222"/>
</svg>
